<svg width="44" height="44" viewBox="0 0 44 44" fill="none" xmlns="http://www.w3.org/2000/svg">
<circle cx="22" cy="22" r="22" fill="white"/>
<path fill-rule="evenodd" clip-rule="evenodd" d="M17.4862 31.5H25.8341C28.9004 31.5 31.2528 30.3924 30.5847 25.9348L29.8066 19.8936C29.3947 17.6693 27.976 16.8181 26.7311 16.8181H16.5526C15.2894 16.8181 13.9531 17.7334 13.4771 19.8936L12.699 25.9348C12.1315 29.889 14.4199 31.5 17.4862 31.5Z" stroke="#8F959E" stroke-width="1.5" stroke-linecap="round" stroke-linejoin="round"/>
<path d="M17.3489 16.5984C17.3489 14.2123 19.2832 12.278 21.6693 12.278C22.8183 12.2731 23.9219 12.7262 24.7361 13.5369C25.5503 14.3477 26.008 15.4494 26.008 16.5984" stroke="#8F959E" stroke-width="1.5" stroke-linecap="round" stroke-linejoin="round"/>
<path d="M18.7037 21.1018H18.7494" stroke="#8F959E" stroke-width="1.5" stroke-linecap="round" stroke-linejoin="round"/>
<path d="M24.5343 21.1018H24.5801" stroke="#8F959E" stroke-width="1.5" stroke-linecap="round" stroke-linejoin="round"/>
</svg>
